<?xml version="1.0" encoding="UTF-8"?>
<svg version="1.1" xmlns="http://www.w3.org/2000/svg" width="768" height="650">
<path d="M0 0 C0.69097778 -0.00139984 1.38195557 -0.00279968 2.09387207 -0.00424194 C12.57002843 0.01324569 21.32366679 0.81035891 30.875 5.4375 C38.84000846 9.13020337 46.89239421 12.5712544 55 15.9375 C69.3731236 21.92801242 83.69029131 28.04728077 98 34.1875 C99.02836975 34.62876221 100.0567395 35.07002441 101.11627197 35.5246582 C106.10747671 37.66668994 111.09828195 39.80965038 116.08886719 41.953125 C123.42260022 45.10263773 130.75882781 48.24632408 138.09521484 51.38964844 C138.87026367 51.72186401 139.6453125 52.05407959 140.44384766 52.3963623 C142.17420072 53.13738366 143.90504805 53.87725128 145.63623047 54.61633301 C147.01391602 55.20505188 147.01391602 55.20505188 148.41943359 55.80566406 C149.24929779 56.15985413 150.07916199 56.51404419 150.93417358 56.87896729 C171.81986852 65.93663366 187.14433132 79.68402982 195.8125 101.125 C198.92349822 110.06107421 200.04873559 118.39328344 200.1875 127.8125 C200.20530518 128.5667627 200.22311035 129.32102539 200.24145508 130.09814453 C200.22395467 142.7819035 195.67516572 154.07131019 190.6875 165.5 C189.80887232 167.54736682 188.93421036 169.59640005 188.05961609 171.64549255 C187.48119405 172.99983302 186.90154538 174.3536503 186.32063293 175.70692444 C183.8616007 181.43903198 181.49606197 187.20558154 179.1875 193 C178.87337158 193.78318604 178.55924316 194.56637207 178.2355957 195.37329102 C176.65076322 199.35777191 175.18523101 203.35190282 173.875 207.4375 C174.74809814 207.71062012 175.62119629 207.98374023 176.52075195 208.26513672 C181.96413269 210.16768525 186.95281339 212.90968335 192.0625 215.5625 C193.6722168 216.37847656 193.6722168 216.37847656 195.31445312 217.2109375 C216.00410982 227.92500049 216.00410982 227.92500049 219.34765625 235.2109375 C221.58091236 244.64024108 220.57329553 253.38735782 215.78125 261.7734375 C211.15468652 268.23924958 205.49268605 273.04763771 197.875 275.4375 C196.555 275.4375 195.235 275.4375 193.875 275.4375 C194.16632812 276.30503906 194.45765625 277.17257812 194.7578125 278.06640625 C202.24234401 301.35574251 205.58643179 325.62884739 207.58129883 349.92675781 C207.80300516 352.56128678 207.80300516 352.56128678 208.875 355.4375 C208.59928861 357.44625442 208.27264263 359.44928687 207.875 361.4375 C209.1434375 361.128125 209.1434375 361.128125 210.4375 360.8125 C214.48089781 360.37140206 216.99774221 361.25550897 220.875 362.4375 C221.97199219 362.70949219 223.06898438 362.98148437 224.19921875 363.26171875 C238.57568806 366.95184618 250.92521809 373.94361145 258.9375 386.8125 C261.19227032 391.79178445 261.36236065 396.67837695 261.4375 402.0625 C261.45240479 402.86220215 261.46730957 403.6619043 261.48266602 404.48583984 C261.29426524 415.28822724 255.31126212 422.1063028 247.875 429.4375 C241.7135405 434.9622427 235.07952919 439.39070062 227.875 443.4375 C228.74125 444.38625 229.6075 445.335 230.5 446.3125 C239.2388588 456.55948336 243.54657858 466.62614005 243.2265625 480.125 C242.47499256 487.20645895 239.27692859 491.87587141 233.875 496.4375 C221.68367347 505.4375 221.68367347 505.4375 214.875 505.4375 C214.545 506.0975 214.215 506.7575 213.875 507.4375 C197.06500593 511.25153227 178.87793029 509.89493068 161.875 508.4375 C160.81821045 508.35113281 159.7614209 508.26476562 158.67260742 508.17578125 C150.50956652 507.50768 150.50956652 507.50768 147.56152344 507.18164062 C136.15158475 505.9216474 130.50353624 509.52943689 121.76220703 516.078125 C90.7212843 538.43722691 34.91037086 561.54752005 -4.125 559.4375 C-4.455 560.0975 -4.785 560.7575 -5.125 561.4375 C-6.07375 561.416875 -7.0225 561.39625 -8 561.375 C-11.03166283 561.21198174 -11.03166283 561.21198174 -13.125 562.4375 C-14.93671098 562.59056901 -16.7533794 562.68696661 -18.5703125 562.75390625 C-19.64667969 562.79580078 -20.72304688 562.83769531 -21.83203125 562.88085938 C-22.95996094 562.92017578 -24.08789062 562.95949219 -25.25 563 C-26.95349609 563.06477539 -26.95349609 563.06477539 -28.69140625 563.13085938 C-31.50247768 563.2371604 -34.31363945 563.33919405 -37.125 563.4375 C-37.41689209 564.19853027 -37.70878418 564.95956055 -38.00952148 565.74365234 C-39.39106089 569.08002919 -41.27223271 572.01704509 -43.1875 575.0625 C-54.63493885 593.76403951 -66.24570127 617.14071438 -65.1328125 639.546875 C-65.125 641.4375 -65.125 641.4375 -66.125 643.4375 C-66.16522391 645.7704866 -66.16820247 648.10456666 -66.125 650.4375 C-79.06524053 650.18864922 -90.30063968 640.21086883 -99.125 631.4375 C-111.67590236 618.06401349 -120.13691935 600.34569741 -121.74829102 582.06689453 C-122.23223806 574.50905116 -122.23223806 574.50905116 -126.5625 568.5625 C-128.33242725 567.37214216 -128.33242725 567.37214216 -130.125 566.4375 C-131.115 565.7775 -132.105 565.1175 -133.125 564.4375 C-140.26609554 562.96754133 -147.83549813 561.74981114 -155.125 562.4375 C-157.72109814 564.52481715 -159.16711685 567.01642367 -160.76171875 569.91015625 C-161.252771 570.8007373 -161.74382324 571.69131836 -162.24975586 572.60888672 C-162.76546143 573.5629541 -163.28116699 574.51702148 -163.8125 575.5 C-164.34560791 576.48500488 -164.87871582 577.47000977 -165.42797852 578.48486328 C-172.84339273 592.34948482 -178.93515448 606.27263402 -183.125 621.4375 C-183.37121094 622.32179688 -183.61742187 623.20609375 -183.87109375 624.1171875 C-185.01466745 628.67570889 -185.28814444 632.89389578 -185.09765625 637.58984375 C-185.125 639.4375 -185.125 639.4375 -186.125 641.4375 C-186.19450541 642.97773996 -186.20952357 644.52084988 -186.1875 646.0625 C-186.17396484 647.28839844 -186.17396484 647.28839844 -186.16015625 648.5390625 C-186.14855469 649.16554688 -186.13695312 649.79203125 -186.125 650.4375 C-198.2570247 650.20419183 -208.63083505 641.43347346 -217.125 633.4375 C-232.97507113 616.65780593 -243.125 594.80974439 -243.125 571.4375 C-243.96804688 571.06431641 -243.96804688 571.06431641 -244.828125 570.68359375 C-256.54343432 564.3278392 -266.17043504 551.0140349 -270.125 538.4375 C-270.29633475 536.21014826 -270.44157629 533.98065659 -270.5625 531.75 C-271.10320087 527.49949039 -271.47207877 525.97248026 -274.828125 523.22265625 C-277.24446732 521.89800222 -279.63121494 520.66287468 -282.109375 519.47265625 C-286.46678153 517.37397392 -290.21499953 514.66075575 -294.0625 511.75 C-294.96488403 511.07203369 -294.96488403 511.07203369 -295.88549805 510.38037109 C-297.04847587 509.50520497 -298.20895365 508.62670507 -299.36669922 507.74462891 C-301.23445427 506.35613119 -303.14708263 505.04648 -305.06640625 503.73046875 C-306.07574219 502.97378906 -307.08507812 502.21710938 -308.125 501.4375 C-308.125 500.7775 -308.125 500.1175 -308.125 499.4375 C-308.69992187 499.18564941 -309.27484375 498.93379883 -309.8671875 498.67431641 C-337.29098828 483.65171966 -357.15853312 442.97808431 -366.125 414.4375 C-367.31505696 409.89455124 -368.19914572 405.28993503 -369.125 400.6875 C-369.30289063 399.81867188 -369.48078125 398.94984375 -369.6640625 398.0546875 C-370.70974817 392.85747366 -371.51342332 387.70288401 -372.125 382.4375 C-372.310625 381.53 -372.49625 380.6225 -372.6875 379.6875 C-373.125 377.4375 -373.125 377.4375 -373.125 373.4375 C-386.22898902 382.97742406 -386.22898902 382.97742406 -399.0625 392.875 C-404.84498349 397.47142222 -410.71812691 401.93963182 -416.625 406.375 C-417.47441162 407.01429443 -418.32382324 407.65358887 -419.19897461 408.31225586 C-421.49816471 410.03396434 -423.80964759 411.73762773 -426.125 413.4375 C-426.71410156 413.88754395 -427.30320312 414.33758789 -427.91015625 414.80126953 C-431.53164285 417.45044597 -431.53164285 417.45044597 -434.2734375 417.390625 C-446.20330751 411.24951048 -455.01479319 394.30710046 -462.65893555 383.61767578 C-463.18140869 382.88790527 -463.70388184 382.15813477 -464.2421875 381.40625 C-464.98033691 380.37177734 -464.98033691 380.37177734 -465.73339844 379.31640625 C-466.94058713 377.68648973 -468.24788941 376.13164778 -469.5703125 374.59375 C-470.33988281 373.52640625 -470.33988281 373.52640625 -471.125 372.4375 C-469.85937607 368.64062822 -468.75005361 368.38331004 -465.296875 366.50390625 C-464.27980469 365.94348633 -463.26273437 365.38306641 -462.21484375 364.80566406 C-461.11269531 364.20979492 -460.01054687 363.61392578 -458.875 363 C-456.577685 361.73647675 -454.28081682 360.47214079 -451.984375 359.20703125 C-450.2509082 358.25691162 -450.2509082 358.25691162 -448.48242188 357.28759766 C-443.66911371 354.63523805 -438.89310493 351.92008764 -434.125 349.1875 C-433.28001953 348.7037793 -432.43503906 348.22005859 -431.56445312 347.72167969 C-425.81856301 344.42525941 -420.08952925 341.10048292 -414.375 337.75 C-413.653125 337.32750977 -412.93125 336.90501953 -412.1875 336.46972656 C-408.97282351 334.7031437 -408.97282351 334.7031437 -406.125 332.4375 C-418.91988068 332.99930309 -431.64580683 333.92930863 -444.39282227 335.16699219 C-447.2437561 335.44294525 -450.09543446 335.71005887 -452.94726562 335.9765625 C-454.76827853 336.15052574 -456.58924412 336.32498507 -458.41015625 336.5 C-459.25892838 336.57919678 -460.1077005 336.65839355 -460.98219299 336.73999023 C-465.18646584 337.07146806 -465.18646584 337.07146806 -469.125 338.4375 C-470.55006879 338.48258672 -471.97708429 338.47218566 -473.40234375 338.43359375 C-481.06445875 338.35502916 -488.65694328 339.14751785 -496.28320312 339.81445312 C-497.40791016 339.90791016 -498.53261719 340.00136719 -499.69140625 340.09765625 C-500.71177979 340.18668213 -501.73215332 340.27570801 -502.78344727 340.36743164 C-503.94251587 340.40211548 -503.94251587 340.40211548 -505.125 340.4375 C-508.09945214 337.46304786 -507.20275725 329.44789168 -507.23852539 325.48046875 C-507.23836856 323.19530638 -507.23280825 320.91013982 -507.22265625 318.625 C-507.2212413 317.41553711 -507.21982635 316.20607422 -507.21836853 314.95996094 C-507.21279709 311.11911485 -507.20024984 307.2783283 -507.1875 303.4375 C-507.18248131 300.8242196 -507.17791905 298.21093827 -507.17382812 295.59765625 C-507.16283702 289.21091739 -507.14612743 282.82421295 -507.125 276.4375 C-505.14590602 276.41063447 -503.16671029 276.39116625 -501.1875 276.375 C-500.08535156 276.36339844 -498.98320312 276.35179687 -497.84765625 276.33984375 C-495.125 276.4375 -495.125 276.4375 -494.125 277.4375 C-491.05083186 277.88489802 -487.98775713 278.27570584 -484.90234375 278.62890625 C-483.96830215 278.73847153 -483.03426056 278.8480368 -482.07191467 278.96092224 C-480.08733741 279.19249433 -478.10249962 279.42184271 -476.11743164 279.64916992 C-473.09895823 279.99581312 -470.08170417 280.35187669 -467.06445312 280.70898438 C-465.13548323 280.93286593 -463.2064486 281.15619054 -461.27734375 281.37890625 C-460.38119858 281.48513809 -459.48505341 281.59136993 -458.56175232 281.70082092 C-454.53544329 282.15592653 -450.60735215 282.48929643 -446.55297852 282.44116211 C-445.42174561 282.43995361 -444.2905127 282.43874512 -443.125 282.4375 C-442.795 282.7675 -442.465 283.0975 -442.125 283.4375 C-438.69998928 283.67409614 -435.28219432 283.83423972 -431.8515625 283.95507812 C-429.93813467 284.04660491 -428.02987161 284.23489852 -426.125 284.4375 C-425.795 285.0975 -425.465 285.7575 -425.125 286.4375 C-420.505 286.4375 -415.885 286.4375 -411.125 286.4375 C-412.671875 285.60347656 -414.21875 284.76945312 -415.8125 283.91015625 C-426.87512386 277.93731954 -437.9068703 271.92332427 -448.84521484 265.72607422 C-464.54398501 256.8528563 -480.30762803 248.09729024 -496.125 239.4375 C-495.49690657 235.31159232 -494.12465556 232.04273708 -492.28125 228.30859375 C-491.99589386 227.72535339 -491.71053772 227.14211304 -491.41653442 226.54119873 C-490.80621646 225.29455581 -490.19344562 224.04911124 -489.57843018 222.80477905 C-487.97448737 219.55833761 -486.38936707 216.3027527 -484.8046875 213.046875 C-484.48930023 212.39957932 -484.17391296 211.75228363 -483.84896851 211.08537292 C-479.74075414 202.62674697 -475.9121444 194.04373555 -472.125 185.4375 C-468.87170925 186.03657831 -467.01835564 187.07929356 -464.5078125 189.2109375 C-463.82557617 189.78287842 -463.14333984 190.35481934 -462.44042969 190.9440918 C-461.71758789 191.5606665 -460.99474609 192.17724121 -460.25 192.8125 C-458.71727342 194.09900084 -457.18340356 195.38414073 -455.6484375 196.66796875 C-454.5032666 197.62775635 -454.5032666 197.62775635 -453.33496094 198.60693359 C-450.2311576 201.17789221 -447.06081505 203.65696821 -443.875 206.125 C-438.72035173 210.13327214 -433.70688041 214.27970362 -428.74169922 218.51977539 C-424.74883034 221.92588955 -420.68429587 225.22536978 -416.57421875 228.48828125 C-409.82864953 233.85676457 -403.1962994 239.35789405 -396.625 244.9375 C-390.8483013 249.84178207 -385.0058472 254.6583619 -379.125 259.4375 C-377.80450566 260.51670463 -376.48420647 261.59614807 -375.1640625 262.67578125 C-373.7552898 263.82562065 -372.34643584 264.97536051 -370.9375 266.125 C-369.95753052 266.92719971 -369.95753052 266.92719971 -368.95776367 267.74560547 C-364.43369938 271.43027605 -359.81687102 274.96925776 -355.125 278.4375 C-354.6285498 277.53378662 -354.6285498 277.53378662 -354.12207031 276.61181641 C-341.22659828 253.23045297 -326.96324907 232.05533611 -309.41113281 211.953125 C-308.19315925 210.5178213 -307.04326344 209.02554913 -305.8984375 207.53125 C-305.31320312 206.8403125 -304.72796875 206.149375 -304.125 205.4375 C-303.465 205.4375 -302.805 205.4375 -302.125 205.4375 C-301.8775 204.81875 -301.63 204.2 -301.375 203.5625 C-299.89729238 201.05039704 -298.68544823 200.67642656 -296.125 199.4375 C-295.795 198.4475 -295.465 197.4575 -295.125 196.4375 C-294.465 196.4375 -293.805 196.4375 -293.125 196.4375 C-293.125 195.7775 -293.125 195.1175 -293.125 194.4375 C-291.83203125 193.09765625 -291.83203125 193.09765625 -289.9375 191.5 C-289.20144531 190.87609375 -288.46539062 190.2521875 -287.70703125 189.609375 C-286.85496094 188.89265625 -286.00289062 188.1759375 -285.125 187.4375 C-284.18011719 186.61765625 -283.23523438 185.7978125 -282.26171875 184.953125 C-262.59968147 167.94042682 -241.12143999 153.55298442 -218.125 141.4375 C-217.15264404 140.92243896 -217.15264404 140.92243896 -216.16064453 140.39697266 C-199.79492255 131.79291959 -182.69270345 124.22235902 -165.125 118.4375 C-164.9013932 115.5120356 -164.9013932 115.5120356 -166.125 113.4375 C-166.85785452 106.63242232 -166.91097662 100.86550342 -162.72265625 95.2421875 C-154.69078904 86.16951598 -145.28889423 81.30588667 -133.12036133 80.39306641 C-127.78302114 80.47224123 -122.94196125 81.99229537 -117.875 83.5625 C-116.78904541 83.8829126 -115.70309082 84.2033252 -114.58422852 84.53344727 C-106.37067403 86.98059671 -98.20727228 89.58570636 -90.125 92.4375 C-82.56600685 79.50097481 -82.56600685 79.50097481 -79.125 65.4375 C-78.465 65.4375 -77.805 65.4375 -77.125 65.4375 C-77.00125 64.91285156 -76.8775 64.38820312 -76.75 63.84765625 C-71.31960481 43.4497343 -59.04369359 21.8403794 -40.55932617 10.92895508 C-37.78082121 9.36448319 -34.96739605 7.88223379 -32.125 6.4375 C-31.39152344 6.03660156 -30.65804688 5.63570313 -29.90234375 5.22265625 C-28.125 4.4375 -28.125 4.4375 -25.125 4.4375 C-24.795 3.7775 -24.465 3.1175 -24.125 2.4375 C-16.19454736 0.03095876 -8.23447449 -0.00159137 0 0 Z " fill="#000101" transform="translate(507.125,-0.4375)"/>
<path d="M0 0 C2.5625 1.3125 2.5625 1.3125 5 3 C6.11375 3.474375 7.2275 3.94875 8.375 4.4375 C11.4549013 5.76504367 14.2151161 7.29155631 17.09765625 8.98828125 C19.10881185 10.05786914 21.11340977 10.83627605 23.25 11.625 C28.29620766 13.5674211 32.95611185 16.0514519 37.70703125 18.609375 C47.1359146 23.62475908 56.72341901 28.19339957 66.4375 32.625 C68.13395286 33.40330346 69.83032141 34.18179071 71.52661133 34.96044922 C86.41647972 41.78246806 101.37495741 48.44834783 116.35897827 55.06048584 C121.49519584 57.32892486 126.62089451 59.61996456 131.7421875 61.921875 C164.34196983 76.55975329 197.33431041 90.19877618 230.5 103.5 C231.62725494 103.95304504 232.75450989 104.40609009 233.91592407 104.87286377 C264.37618879 117.18739826 264.37618879 117.18739826 295.49609375 127.671875 C301.24860023 130.72312649 303.04323196 137.16899108 305 143 C305.25346191 143.73822998 305.50692383 144.47645996 305.76806641 145.23706055 C312 163.62304069 312 163.62304069 312 170 C287.25 170 262.5 170 237 170 C237 178.91 237 187.82 237 197 C252.51 197 268.02 197 284 197 C284 206.24 284 215.48 284 225 C292.91 225 301.82 225 311 225 C311 215.76 311 206.52 311 197 C313.31 197 315.62 197 318 197 C318 208.22 318 219.44 318 231 C313.895625 231.78375 309.79125 232.5675 305.5625 233.375 C292.47474615 235.94442966 279.51457744 238.94737729 266.5625 242.125 C265.6990799 242.33646667 264.83565979 242.54793335 263.94607544 242.76580811 C249.95020046 246.20183842 236.02617994 249.86057711 222.14599609 253.73974609 C210.35167404 257.03130312 198.53115924 260.21262683 186.6763916 263.27944946 C185.16132357 263.67151641 183.64658391 264.06485482 182.13220215 264.45956421 C173.80560076 266.62677612 165.50503142 268.64110061 157 270 C156.38253906 269.03320312 155.76507812 268.06640625 155.12890625 267.0703125 C143.36418823 248.35832003 143.36418823 248.35832003 124.8515625 237.43359375 C121.95354751 237.24406112 120.31435489 237.74648799 118.0625 239.5625 C116.3835168 243.41428498 116.29229552 247.09464178 117.76171875 251.05078125 C119.26542864 253.41781985 120.70830322 254.28547905 123.125 255.6875 C135.49845571 263.66590424 143.78139554 277.79558033 147 292 C147.17917969 292.58652344 147.35835937 293.17304688 147.54296875 293.77734375 C150.06178803 306.02698624 147.95735848 317.95505597 141.42578125 328.5546875 C135.97085504 336.10766225 128.63278425 341.26725106 120.62890625 345.859375 C118.69160055 347.06892389 118.69160055 347.06892389 117 350 C116.52822997 352.72090623 116.55159906 355.27553862 117 358 C119.20698969 360.82494681 120.71202121 360.96123362 124.25 361.4375 C135.22202452 360.15743047 142.55883006 351.44116994 150 344 C158.59339035 343.71558096 167.19139297 345.93727026 175.5 347.875 C176.63308594 348.13152344 177.76617188 348.38804687 178.93359375 348.65234375 C184.3899924 349.89612763 189.82077083 351.20609861 195.23828125 352.609375 C200.36719781 353.9040776 205.44472963 354.71884762 210.6875 355.375 C220.11823286 356.6581359 228.9695477 359.0405383 238 362 C235.27527176 365.26766302 231.68718766 366.86258273 227.9375 368.6875 C227.23214111 369.03417725 226.52678223 369.38085449 225.80004883 369.73803711 C184.62998957 389.79153372 142.26329381 398.69275693 97 404 C96.37107346 404.08776199 95.74214691 404.17552399 95.09416199 404.26594543 C87.8941487 405.20230519 80.69893959 405.16404385 73.44921875 405.16796875 C72.02700266 405.17119586 70.60478687 405.17456092 69.18257141 405.17805481 C66.19958737 405.18402254 63.21663216 405.18589781 60.23364258 405.18530273 C57.23683508 405.18522245 54.24018361 405.19200928 51.2434082 405.20581055 C31.72435225 405.29450553 12.45678927 404.73985642 -7 403 C-6.18570276 399.36771747 -4.80759602 396.79536355 -2.82421875 393.625 C-2.16711914 392.56772705 -1.51001953 391.5104541 -0.83300781 390.42114258 C-0.48322876 389.86359283 -0.13344971 389.30604309 0.22692871 388.7315979 C1.32646961 386.97771704 2.41868322 385.21947547 3.50878906 383.4597168 C4.98097229 381.08330385 6.45465997 378.70784136 7.93017578 376.33349609 C30.75657308 339.57109592 52.12568863 300.85850137 52.24023438 256.52929688 C52.24991794 254.26915354 52.28100272 252.0099301 52.3125 249.75 C52.37392878 241.07139874 51.67833794 233.35011241 49 225 C49.23976563 226.67255859 49.23976563 226.67255859 49.484375 228.37890625 C51.9815293 248.53767139 49.433333 267.57402461 41 286 C40.61811523 286.85368164 40.23623047 287.70736328 39.84277344 288.58691406 C26.65688436 317.91962612 7.78373843 342.24467669 -12.57958984 366.91357422 C-33.25558901 391.98791074 -53.91951994 418.09312637 -65 449 C-65.38929688 450.07121094 -65.77859375 451.14242188 -66.1796875 452.24609375 C-68.33523661 458.42166328 -69.91549912 464.55007371 -71 471 C-73.53109047 468.77207636 -74.57999897 466.9613748 -75.5625 463.75 C-75.79066406 463.02296875 -76.01882813 462.2959375 -76.25390625 461.546875 C-76.62322266 460.28617188 -76.62322266 460.28617188 -77 459 C-77.35320312 458.00613281 -77.70640625 457.01226563 -78.0703125 455.98828125 C-79.59596168 450.59005373 -79.34036275 445.00248802 -79.3125 439.4375 C-79.30686035 438.27307373 -79.3012207 437.10864746 -79.29541016 435.90893555 C-78.75542626 397.64225507 -53.36871149 364.43977184 -29 337 C-28.00166138 335.86594727 -28.00166138 335.86594727 -26.9831543 334.70898438 C-21.19665542 328.19297585 -15.1263445 322.00785634 -8.9375 315.875 C-7.96655904 314.90909319 -6.99585477 313.94294838 -6.02539062 312.9765625 C-3.68589498 310.64870613 -1.34407948 308.32323895 1 306 C-38.63699037 324.8464709 -78.56577509 352.5251891 -93.87231445 395.44604492 C-94.60129554 397.6250139 -95.30679148 399.80943964 -96 402 C-96.66666667 404 -97.33333333 406 -98 408 C-104.24058151 402.62616593 -107.4686568 395.39692878 -108.2734375 387.22265625 C-108.79137066 371.1069669 -101.20980357 359.17246789 -90.6015625 347.73046875 C-89.31378906 346.37888672 -89.31378906 346.37888672 -88 345 C-87.28215332 344.24130615 -87.28215332 344.24130615 -86.54980469 343.46728516 C-79.20080645 335.74448951 -71.4871699 328.93193519 -62.98632812 322.51123047 C-60.76234059 320.81918489 -58.55982268 319.10144702 -56.359375 317.37890625 C-55.56362061 316.7562085 -54.76786621 316.13351074 -53.94799805 315.49194336 C-53.16078369 314.87585205 -52.37356934 314.25976074 -51.5625 313.625 C-46.45413958 309.62765689 -41.30548607 305.73271352 -36 302 C-65.83760429 308.56974773 -93.12504071 325.10100043 -115 346 C-117.30661222 348.03501453 -119.64565299 350.0202082 -122 352 C-122.70877549 341.01397998 -119.17923775 333.67994483 -112.1171875 325.36328125 C-111.41851562 324.58339844 -110.71984375 323.80351562 -110 323 C-109.40445313 322.33355469 -108.80890625 321.66710937 -108.1953125 320.98046875 C-98.82822301 311.110853 -87.18893511 303.36252176 -76.26074219 295.34448242 C-58.52804052 282.40885988 -58.52804052 282.40885988 -42 268 C-41.17242187 267.23558594 -40.34484375 266.47117187 -39.4921875 265.68359375 C-29.27781604 255.95338975 -22.39890747 244.93620573 -17 232 C-19.50203661 234.48419677 -21.9809516 236.97983657 -24.40234375 239.54296875 C-42.80244916 258.73691538 -67.51830622 270.06546054 -90.67431641 282.42773438 C-113.52757329 294.67104076 -131.6526043 305.74548448 -139.55297852 331.82543945 C-140.09770809 334.47530636 -140.11204672 336.93521757 -140.09765625 339.640625 C-140.09443359 340.71054687 -140.09121094 341.78046875 -140.08789062 342.8828125 C-140.07951172 343.99398438 -140.07113281 345.10515625 -140.0625 346.25 C-140.05798828 347.37664062 -140.05347656 348.50328125 -140.04882812 349.6640625 C-140.03705397 352.44276217 -140.0206084 355.22135409 -140 358 C-145.64493917 355.05453924 -150.67097707 351.97273223 -155.4375 347.75 C-156.26362793 347.03166992 -156.26362793 347.03166992 -157.10644531 346.29882812 C-158.21916194 345.32850314 -159.32877908 344.35461079 -160.43505859 343.37695312 C-161.85612139 342.12659522 -163.29621013 340.89794402 -164.73828125 339.671875 C-170.92371607 334.32334971 -176.01070007 328.46500836 -181 322 C-181.7528125 321.05125 -182.505625 320.1025 -183.28125 319.125 C-195.93890558 302.82610104 -203.5420997 284.90968565 -208.875 265.0625 C-209.06602295 264.35520752 -209.2570459 263.64791504 -209.45385742 262.91918945 C-212.64034636 250.28739816 -213.38088987 237.70482013 -213.3125 224.75 C-213.30968018 223.97665314 -213.30686035 223.20330627 -213.30395508 222.40652466 C-213.2416534 211.02750475 -212.98146521 200.036934 -210 189 C-209.74186523 188.03368652 -209.48373047 187.06737305 -209.21777344 186.07177734 C-199.14577843 149.3363227 -180.72588406 118.36252554 -155.09375 90.31640625 C-153.29965017 88.33151595 -151.58598419 86.30579989 -149.875 84.25 C-140.70156859 73.76305186 -129.86015914 64.67410083 -118.75048828 56.31787109 C-117.00061151 55.00046038 -115.26412806 53.66663338 -113.52734375 52.33203125 C-86.39843665 31.72227143 -55.49228369 15.66430639 -23.05078125 5.32421875 C-18.97793158 4.02039517 -14.99704018 2.51964147 -11 1 C-7.29160598 -0.23613134 -3.85835569 -0.43377963 0 0 Z " fill="#5AC8E0" transform="translate(372,136)"/>
<path d="M0 0 C4.88345447 2.14507958 9.77626979 4.26865347 14.66760254 6.39569092 C15.63651428 6.81772797 16.60542603 7.23976501 17.60369873 7.67459106 C25.57117566 11.14177605 33.56881443 14.53026549 41.58947754 17.87225342 C53.71397191 22.92911271 65.81306144 28.04342321 77.90197754 33.18475342 C78.74796509 33.544422 79.59395264 33.90409058 80.46557617 34.2746582 C84.46318688 35.97440894 88.45987271 37.67625288 92.45471191 39.38250732 C95.27817 40.58715284 98.1070993 41.77678858 100.94299316 42.95184326 C101.57877792 43.21767715 102.21456268 43.48351105 102.86961365 43.75740051 C104.55062842 44.45975091 106.23413228 45.15613589 107.91784668 45.85198975 C120.19690513 51.71601741 129.0539284 63.11968041 133.74182129 75.66131592 C139.92350976 94.97553151 132.45249176 111.35655109 124.40197754 128.74725342 C120.30053729 137.6844925 116.34753669 146.60464574 113.08557129 155.88787842 C111.83947754 158.24725342 111.83947754 158.24725342 110.14440918 159.05853271 C106.77527322 159.33438719 104.7403475 158.10176307 101.71447754 156.62615967 C101.10906631 156.33582352 100.50365509 156.04548737 99.87989807 155.74635315 C98.55995755 155.11236154 97.24246482 154.47325462 95.92715454 153.82971191 C92.30543697 152.06028034 88.66287323 150.33456124 85.02307129 148.60272217 C83.88254555 148.05832489 83.88254555 148.05832489 82.71897888 147.50292969 C74.83628678 143.74871719 66.88360755 140.16039742 58.90197754 136.62225342 C58.17822937 136.30107544 57.4544812 135.97989746 56.70880127 135.64898682 C37.64380282 127.20103592 18.45083848 119.04688383 -0.72673035 110.85884094 C-6.35424815 108.45388826 -11.97478456 106.03419906 -17.58239746 103.58319092 C-18.20097122 103.31283524 -18.81954498 103.04247955 -19.4568634 102.76393127 C-20.05750107 102.50134018 -20.65813873 102.23874908 -21.27697754 101.96820068 C-33.7359297 96.52288174 -46.26719233 91.27829425 -58.84802246 86.12225342 C-60.08993347 85.61249466 -60.08993347 85.61249466 -61.35693359 85.09243774 C-69.08419038 81.92204502 -76.8136288 78.76038285 -84.59181213 75.71664429 C-86.54450331 74.95247134 -88.4949773 74.1828928 -90.44494629 73.4118042 C-92.77679381 72.49314475 -95.11366901 71.58710988 -97.45617676 70.69598389 C-98.46978271 70.29524658 -99.48338867 69.89450928 -100.52770996 69.48162842 C-101.40540039 69.14357178 -102.28309082 68.80551514 -103.18737793 68.45721436 C-105.16052246 67.24725342 -105.16052246 67.24725342 -105.88830566 65.46923828 C-106.23533151 62.63662034 -105.59594812 61.10968759 -104.48913574 58.48553467 C-103.9019426 57.07256104 -103.9019426 57.07256104 -103.30288696 55.63104248 C-102.8666098 54.61751709 -102.43033264 53.6039917 -101.98083496 52.55975342 C-101.53464813 51.50626709 -101.0884613 50.45278076 -100.62875366 49.36737061 C-99.67772764 47.13229533 -98.72069535 44.89976775 -97.75817871 42.6696167 C-96.30661675 39.29627526 -94.88485743 35.91147042 -93.46520996 32.52459717 C-86.26080386 15.57172267 -78.80434203 -0.06006342 -61.16052246 -8.12384033 C-58.5118464 -9.10629762 -55.87047701 -9.95788149 -53.16052246 -10.75274658 C-52.19759277 -11.10594971 -51.23466309 -11.45915283 -50.24255371 -11.82305908 C-33.11378362 -16.98991242 -15.29260237 -6.71855939 0 0 Z " fill="#A77B4F" transform="translate(547.1605224609375,35.75274658203125)"/>
<path d="M0 0 C4.28753282 2.30607049 7.9085349 5.03342614 11.4765625 8.33203125 C12.02570313 8.78191406 12.57484375 9.23179687 13.140625 9.6953125 C16.50651885 12.88256953 16.8653864 15.93042768 17.0390625 20.33203125 C16.79019564 25.51356688 16.04580439 28.40586517 12.4765625 32.33203125 C11.96351563 32.94304687 11.45046875 33.5540625 10.921875 34.18359375 C-10.05112065 57.49692368 -49.47817856 60.33535587 -78.68014526 62.14071655 C-90.45216572 62.72671428 -102.24672075 62.6773687 -114.03039932 62.64928055 C-116.30350546 62.64446759 -118.57659006 62.64343976 -120.84970093 62.64303589 C-146.55431784 62.6266014 -172.0132433 61.69637184 -197.5234375 58.33203125 C-197.86254744 56.2913161 -198.19446454 54.24940504 -198.5234375 52.20703125 C-198.7090625 51.07007813 -198.8946875 49.933125 -199.0859375 48.76171875 C-199.49299799 45.57065523 -199.60153652 42.54385334 -199.5234375 39.33203125 C-188.08417687 35.98552462 -176.55118009 33.10013787 -164.9609375 30.33203125 C-152.04465978 27.26211107 -152.04465978 27.26211107 -139.2734375 23.64453125 C-132.36395884 21.51963482 -125.4019688 19.80510284 -118.35253906 18.20629883 C-113.43479738 17.07813967 -108.59148125 15.79585032 -103.74609375 14.38671875 C-96.76124888 12.36614509 -89.73396151 10.64707241 -82.6484375 9.01953125 C-81.38281982 8.7261084 -80.11720215 8.43268555 -78.81323242 8.13037109 C-67.44545287 5.5043475 -56.04868003 3.00939554 -44.64306641 0.5534668 C-43.36222168 0.27672119 -42.08137695 -0.00002441 -40.76171875 -0.28515625 C-39.62774658 -0.52862793 -38.49377441 -0.77209961 -37.32543945 -1.02294922 C-25.46412049 -3.75341926 -11.55152405 -4.7104918 0 0 Z " fill="#F3911E" transform="translate(735.5234375,380.66796875)"/>
<path d="M0 0 C11.41044787 -0.46573257 21.13481032 -0.00992993 32 4 C33.41732422 4.50853516 33.41732422 4.50853516 34.86328125 5.02734375 C46.16943585 9.42157534 56.86489106 15.56345838 67.4375 21.47265625 C94.96291948 36.73977904 117.73665683 33.94801573 147.59667969 25.69604492 C152.56476779 24.25719698 157.43695549 22.64952761 162.21484375 20.6640625 C176.283016 15.0367936 187.7146504 18.07572905 201.88671875 21.74609375 C202.63139404 21.93872803 203.37606934 22.1313623 204.14331055 22.32983398 C206 23 206 23 208 25 C196.23125161 32.30192707 183.79795523 37.76104501 171 43 C170.18370117 43.33418945 169.36740234 43.66837891 168.52636719 44.01269531 C136.09246099 57.07654197 101.50723204 61.95393414 67 66 C66.37107346 66.08776199 65.74214691 66.17552399 65.09416199 66.26594543 C57.8941487 67.20230519 50.69893959 67.16404385 43.44921875 67.16796875 C42.02700266 67.17119586 40.60478687 67.17456092 39.18257141 67.17805481 C36.19958737 67.18402254 33.21663216 67.18589781 30.23364258 67.18530273 C27.23683508 67.18522245 24.24018361 67.19200928 21.2434082 67.20581055 C1.72435225 67.29450553 -17.54321073 66.73985642 -37 65 C-36.18570276 61.36771747 -34.80759602 58.79536355 -32.82421875 55.625 C-32.16679687 54.56708252 -31.509375 53.50916504 -30.83203125 52.41918945 C-30.48221191 51.86155914 -30.13239258 51.30392883 -29.77197266 50.72940063 C-28.30566696 48.39109364 -26.85200186 46.04502619 -25.39761353 43.69929504 C-24.65988006 42.50964201 -23.9215763 41.32034244 -23.18270874 40.13139343 C-15.01279856 26.98307583 -7.09082485 13.76454236 0 0 Z " fill="#00ADED" transform="translate(402,474)"/>
<path d="M0 0 C10.60336821 4.59735956 21.20397128 9.20014223 31.77441406 13.87280273 C47.86313342 20.98124988 64.02934046 27.90512141 80.20690918 34.8081665 C83.21650414 36.09238399 86.22592305 37.37701361 89.23535156 38.66162109 C132.08448905 56.94918081 175.01829824 75.02663252 218 93 C216.44187145 97.15575144 214.84940147 101.29747626 213.25 105.4375 C212.8065625 106.62150391 212.363125 107.80550781 211.90625 109.02539062 C211.46796875 110.15009766 211.0296875 111.27480469 210.578125 112.43359375 C210.18012695 113.47572021 209.78212891 114.51784668 209.37207031 115.59155273 C208 118 208 118 206.22167969 119.01171875 C202.9663812 118.99454794 200.79563301 117.80318953 197.875 116.37890625 C197.26958878 116.0885701 196.66417755 115.79823395 196.04042053 115.49909973 C194.72048001 114.86510813 193.40298728 114.2260012 192.087677 113.5824585 C188.46595943 111.81302692 184.8233957 110.08730782 181.18359375 108.35546875 C180.04306801 107.81107147 180.04306801 107.81107147 178.87950134 107.25567627 C170.99680925 103.50146377 163.04413001 99.91314401 155.0625 96.375 C154.33875183 96.05382202 153.61500366 95.73264404 152.86932373 95.4017334 C133.80432528 86.95378251 114.61136094 78.79963041 95.43379211 70.61158752 C89.80627431 68.20663484 84.1857379 65.78694564 78.578125 63.3359375 C77.95955124 63.06558182 77.34097748 62.79522614 76.70365906 62.51667786 C76.10302139 62.25408676 75.50238373 61.99149567 74.88354492 61.72094727 C62.42459277 56.27562833 49.89333013 51.03104083 37.3125 45.875 C36.48455933 45.53516083 35.65661865 45.19532166 34.80358887 44.84518433 C27.07633209 41.6747916 19.34689366 38.51312943 11.56871033 35.46939087 C9.61601915 34.70521793 7.66554517 33.93563938 5.71557617 33.16455078 C3.38372865 32.24589133 1.04685345 31.33985646 -1.2956543 30.44873047 C-2.30926025 30.04799316 -3.32286621 29.64725586 -4.3671875 29.234375 C-5.24487793 28.89631836 -6.12256836 28.55826172 -7.02685547 28.20996094 C-9 27 -9 27 -9.92016602 25.19921875 C-10.02867962 22.20995106 -9.13588354 20.30196341 -7.91015625 17.578125 C-7.45576172 16.55332031 -7.00136719 15.52851562 -6.53320312 14.47265625 C-6.04787109 13.40917969 -5.56253906 12.34570312 -5.0625 11.25 C-4.58103516 10.17105469 -4.09957031 9.09210938 -3.60351562 7.98046875 C-2.41254609 5.31552703 -1.21108789 2.65584451 0 0 Z " fill="#895C3A" transform="translate(451,76)"/>
<path d="M0 0 C4.88345447 2.14507958 9.77626979 4.26865347 14.66760254 6.39569092 C15.63651428 6.81772797 16.60542603 7.23976501 17.60369873 7.67459106 C25.57117566 11.14177605 33.56881443 14.53026549 41.58947754 17.87225342 C53.71397191 22.92911271 65.81306144 28.04342321 77.90197754 33.18475342 C78.74796509 33.544422 79.59395264 33.90409058 80.46557617 34.2746582 C84.46318688 35.97440894 88.45987271 37.67625288 92.45471191 39.38250732 C95.27817 40.58715284 98.1070993 41.77678858 100.94299316 42.95184326 C101.57877792 43.21767715 102.21456268 43.48351105 102.86961365 43.75740051 C104.55062842 44.45975091 106.23413228 45.15613589 107.91784668 45.85198975 C120.19690513 51.71601741 129.0539284 63.11968041 133.74182129 75.66131592 C136.43806861 84.08553567 137.96657448 94.43128778 134.31604004 102.69647217 C133.82877441 103.53822998 133.34150879 104.37998779 132.83947754 105.24725342 C130.62413296 103.03190884 130.0438272 101.47221346 128.96447754 98.55975342 C127.70627884 95.29127483 126.37763033 92.2592129 124.58947754 89.24725342 C122.83947754 86.24725342 122.83947754 86.24725342 122.83947754 84.24725342 C121.54654785 84.29365967 120.25361816 84.34006592 118.92150879 84.38787842 C99.74902449 84.87194808 85.14550772 80.55475978 70.83557129 67.29803467 C67.55548044 63.92807832 66.57254684 61.65497611 66.21447754 57.05975342 C66.1023291 55.70817139 66.1023291 55.70817139 65.98791504 54.32928467 C65.93893066 53.64221436 65.88994629 52.95514404 65.83947754 52.24725342 C50.76029687 45.4517077 35.62484614 38.82928412 20.35192871 32.47943115 C12.66968544 29.283292 5.00941056 26.04112723 -2.63317871 22.75115967 C-4.43887375 21.97589578 -6.24461916 21.20074921 -8.05041504 20.42572021 C-10.70485007 19.28640644 -13.3582231 18.14493882 -16.00827026 16.99545288 C-38.07573244 7.42590668 -56.9544242 3.57739937 -80.14489746 12.38006592 C-80.81005371 12.66623779 -81.47520996 12.95240967 -82.16052246 13.24725342 C-81.83871388 7.93741186 -78.8892234 4.71999529 -75.16052246 1.24725342 C-50.00534264 -19.46040522 -27.08547125 -11.89956705 0 0 Z " fill="#C1976A" transform="translate(547.1605224609375,35.75274658203125)"/>
<path d="M0 0 C6.9791778 5.86611927 13.69259422 11.60552249 15.34375 20.97265625 C15.49202705 24.67313563 14.8922343 27.63893976 12.765625 30.78515625 C4.82434528 38.80665092 -8.67447 40.66666093 -19.36247253 40.80838013 C-21.52322086 40.81562039 -23.68307076 40.80311582 -25.84375 40.78515625 C-26.59714661 40.78277954 -27.35054321 40.78040283 -28.12677002 40.7779541 C-50.45549272 40.66910487 -72.62426268 37.92238944 -94.48046875 33.40625 C-99.69457644 32.33568422 -104.93534718 31.46362928 -110.18579102 30.59155273 C-124.4236488 28.22309224 -138.47219389 25.32045822 -152.53564453 22.08398438 C-158.82639425 20.65680661 -165.13855695 19.32518964 -171.45068359 17.99609375 C-176.00447515 17.02069882 -180.39376083 15.94310686 -184.78125 14.34765625 C-184.63956863 12.90974109 -184.49273957 11.47233255 -184.34375 10.03515625 C-184.26253906 9.23464844 -184.18132813 8.43414062 -184.09765625 7.609375 C-183.78125 5.34765625 -183.78125 5.34765625 -182.78125 2.34765625 C-180.26034222 2.32041955 -177.73973543 2.30070418 -175.21875 2.28515625 C-174.16204102 2.27258789 -174.16204102 2.27258789 -173.08398438 2.25976562 C-172.38466797 2.25654297 -171.68535156 2.25332031 -170.96484375 2.25 C-170.33118896 2.24476318 -169.69753418 2.23952637 -169.04467773 2.23413086 C-166.78125 2.34765625 -166.78125 2.34765625 -163.54269409 2.82199097 C-157.56672343 3.65713838 -151.56209446 4.00805058 -145.54296875 4.390625 C-144.84793432 4.43487295 -144.15289989 4.4791209 -143.43680382 4.5247097 C-127.97654179 5.48475262 -112.53939954 5.6895699 -97.05297852 5.66333008 C-94.07463557 5.65867935 -91.09669928 5.66572661 -88.1184082 5.68383789 C-62.67891864 5.8367765 -37.64135249 4.79771458 -12.72265625 -0.8828125 C-7.92328322 -1.87874781 -4.39478893 -2.61094904 0 0 Z " fill="#EC5927" transform="translate(718.78125,451.65234375)"/>
<path d="M0 0 C2.5625 1.3125 2.5625 1.3125 5 3 C6.11375 3.474375 7.2275 3.94875 8.375 4.4375 C11.44398434 5.76033808 14.19365102 7.27568085 17.0625 8.97265625 C19.25892188 10.13729124 21.48625883 10.99902481 23.8125 11.875 C29.19312231 13.95782154 34.35966965 16.54443484 39 20 C39 20.66 39 21.32 39 22 C38.38294189 22.09498779 37.76588379 22.18997559 37.13012695 22.2878418 C8.12307867 26.80469573 -19.24545092 34.5661463 -47 44 C-47.03738281 44.88042969 -47.07476562 45.76085937 -47.11328125 46.66796875 C-47.17902344 47.82941406 -47.24476563 48.99085938 -47.3125 50.1875 C-47.37050781 51.33605469 -47.42851562 52.48460937 -47.48828125 53.66796875 C-48.22329193 58.45395434 -49.9367592 61.04308328 -53.5 64.25 C-58.76430169 67.93501118 -64.79776562 67.85251393 -71 67 C-74.13229725 65.45053789 -76.68517497 63.62800724 -79 61 C-79 60.34 -79 59.68 -79 59 C-106.9927335 68.08443427 -133.15262318 86.70221937 -156.43359375 104.34765625 C-157.15764404 104.89607178 -157.88169434 105.4444873 -158.62768555 106.00952148 C-160.00252512 107.05603172 -161.37280487 108.10857076 -162.73754883 109.16821289 C-166.04306414 111.69940897 -168.98612944 113.69779009 -173 115 C-172.57872918 110.06380496 -170.05173941 107.24052864 -166.875 103.6875 C-166.37436035 103.11281982 -165.8737207 102.53813965 -165.35791016 101.94604492 C-163.91304151 100.29034007 -162.45706196 98.64496837 -161 97 C-159.79142118 95.60437922 -158.58304161 94.20858582 -157.375 92.8125 C-156.82714844 92.19375 -156.27929688 91.575 -155.71484375 90.9375 C-154.48785003 89.55119275 -153.27303077 88.15407217 -152.06640625 86.75 C-142.111051 75.35157491 -130.82777071 65.43800736 -118.76660156 56.33398438 C-117.59549046 55.44966278 -116.42810795 54.56038011 -115.26464844 53.66601562 C-87.65473159 32.45144127 -56.21522347 15.89472915 -23.05078125 5.32421875 C-18.97793158 4.02039517 -14.99704018 2.51964147 -11 1 C-7.29160598 -0.23613134 -3.85835569 -0.43377963 0 0 Z " fill="#CDE9F1" transform="translate(372,136)"/>
<path d="M0 0 C2.90863392 1.86517781 5.42814083 3.85628166 7 7 C7.81227954 13.78397182 6.28114323 19.00188586 3.5 25.125 C3.1376123 25.94758301 2.77522461 26.77016602 2.40185547 27.61767578 C-8.8850397 52.85323931 -25.23315247 73.92647254 -48.125 89.8125 C-48.78201904 90.26890869 -49.43903809 90.72531738 -50.1159668 91.19555664 C-59.36278885 97.45983097 -68.53307261 102.53006977 -80 101 C-83.1875 99.375 -83.1875 99.375 -85 96 C-87.37289335 79.28188773 -79.54773999 64.30338046 -69.875 51.1875 C-68.26311528 49.11271505 -66.6398263 47.05230158 -65 45 C-64.23647217 44.03344482 -64.23647217 44.03344482 -63.45751953 43.04736328 C-49.58060373 25.50406806 -34.28636769 9.36399516 -13 1 C-11.96875 0.566875 -10.9375 0.13375 -9.875 -0.3125 C-6.14044008 -1.20554694 -3.71286893 -0.99451846 0 0 Z " fill="#FDFEFE" transform="translate(278,211)"/>
<path d="M0 0 C27.06 0 54.12 0 82 0 C82 8.58 82 17.16 82 26 C79.36 26 76.72 26 74 26 C74 35.9 74 45.8 74 56 C64.76 56 55.52 56 46 56 C46 46.43 46 36.86 46 27 C30.82 27 15.64 27 0 27 C0 18.09 0 9.18 0 0 Z " fill="#020303" transform="translate(487,309)"/>
<path d="M0 0 C4.03907907 2.57352063 7.46697637 5.23452552 10.9375 8.5625 C22.67945828 19.36573804 39.3523027 34.27611532 55.85546875 34.16796875 C60.04236214 33.94432103 64.06611021 33.20761063 68.18359375 32.4453125 C71.85435965 31.86491401 75.29261358 31.85740821 79 32 C78.443125 32.969375 77.88625 33.93875 77.3125 34.9375 C76.94769531 35.58332031 76.58289063 36.22914063 76.20703125 36.89453125 C75.41315663 38.27931579 74.59843208 39.65238953 73.76171875 41.01171875 C65.22694773 55.30679963 65.4848393 68.79423309 66 85 C60.35506083 82.05453924 55.32902293 78.97273223 50.5625 74.75 C50.01174805 74.27111328 49.46099609 73.79222656 48.89355469 73.29882812 C47.78083806 72.32850314 46.67122092 71.35461079 45.56494141 70.37695312 C44.14387861 69.12659522 42.70378987 67.89794402 41.26171875 66.671875 C35.07628393 61.32334971 29.98929993 55.46500836 25 49 C24.2471875 48.05125 23.494375 47.1025 22.71875 46.125 C13.82880983 34.67767978 0 15.35048071 0 0 Z " fill="#00ACEC" transform="translate(166,409)"/>
<path d="M0 0 C20.55611827 8.87968374 20.55611827 8.87968374 24.4453125 18.48828125 C24.9712808 22.79782799 24.92550317 25.76799524 22.4453125 29.48828125 C19.41831311 29.82528921 16.66045578 29.96243412 13.6328125 29.92578125 C12.77494141 29.91820801 11.91707031 29.91063477 11.03320312 29.90283203 C-5.45648679 29.47978193 -19.1685647 22.18635262 -30.5546875 10.48828125 C-32.69055428 7.28448108 -32.78600925 6.46888158 -32.6796875 2.80078125 C-32.66164063 1.99253906 -32.64359375 1.18429688 -32.625 0.3515625 C-32.60179687 -0.26332031 -32.57859375 -0.87820312 -32.5546875 -1.51171875 C-23.61872477 -7.26121415 -9.10788361 -3.43237652 0 0 Z " fill="#FDFDFC" transform="translate(646.5546875,90.51171875)"/>
<path d="M0 0 C12.87 0 25.74 0 39 0 C39 8.91 39 17.82 39 27 C26.13 27 13.26 27 0 27 C0 18.09 0 9.18 0 0 Z " fill="#FEFEFE" transform="translate(494,337)"/>
<path d="M0 0 C9.9 0 19.8 0 30 0 C30 9.24 30 18.48 30 28 C20.1 28 10.2 28 0 28 C0 18.76 0 9.52 0 0 Z " fill="#FDFEFE" transform="translate(625,333)"/>
<path d="M0 0 C-6.08393639 9.12590458 -17.40037588 13.10869724 -27.80078125 15.3203125 C-39.56944299 17.23903644 -52.12822348 16.29075564 -64 16 C-64.66 14.68 -65.32 13.36 -66 12 C-62.33304687 7.80819671 -59.03057003 5.89221857 -53.75 4.4375 C-53.04891113 4.23552002 -52.34782227 4.03354004 -51.62548828 3.82543945 C-50.15223988 3.40790441 -48.67640641 2.99939296 -47.19824219 2.59960938 C-45.10401936 2.02837312 -43.0260403 1.41511366 -40.9453125 0.796875 C-28.4754618 -2.71031749 -12.27007448 -5.08709556 0 0 Z " fill="#FEFBF8" transform="translate(714,394)"/>
<path d="M0 0 C4.01279066 2.32242097 7.13177184 4.57526317 8.7578125 9.046875 C9.30491175 13.32988052 9.26056628 16.85614237 7.5703125 20.859375 C4.03349436 25.12794861 0.70812122 27.70157961 -4.87890625 28.35546875 C-11.61251102 28.63998726 -15.53973368 28.07745263 -20.71875 23.65234375 C-23.44919114 20.77487886 -24.56373545 18.69832034 -24.6796875 14.796875 C-24.5611072 10.50705833 -23.58311685 7.85403686 -20.8515625 4.5546875 C-15.11650582 -0.81844813 -7.44010938 -3.16269458 0 0 Z " fill="#FCFEFE" transform="translate(315.2421875,174.953125)"/>
<path d="M0 0 C7.26 0 14.52 0 22 0 C20.90748297 2.73129257 19.80697393 5.4596398 18.66796875 8.171875 C15.01667091 16.99664762 12.09529949 25.87191049 9.53710938 35.0703125 C8.70733991 38.0514479 7.85215715 41.02519687 7 44 C4.27277908 39.90916862 3.24484605 35.72642083 2 31 C1.78988281 30.20851563 1.57976562 29.41703125 1.36328125 28.6015625 C-0.72993533 19.18951063 -0.12862084 9.58225236 0 0 Z " fill="#58C4DB" transform="translate(413,564)"/>
<path d="M0 0 C1.890625 1.38671875 1.890625 1.38671875 3.890625 4.38671875 C0.56847962 5.42705655 -2.76514092 6.41976813 -6.109375 7.38671875 C-7.18638672 7.70576172 -7.18638672 7.70576172 -8.28515625 8.03125 C-18.27748759 10.64694502 -28.08861907 10.74842335 -37.31640625 5.87109375 C-39.4574233 4.09857419 -39.56987689 3.0390531 -40.109375 0.38671875 C-12.16922554 -6.70919222 -12.16922554 -6.70919222 0 0 Z " fill="#FEF5F2" transform="translate(710.109375,475.61328125)"/>
<path d="M0 0 C0.886875 0.70125 1.77375 1.4025 2.6875 2.125 C2.6875 2.785 2.6875 3.445 2.6875 4.125 C1.46160156 4.35574219 0.23570312 4.58648437 -1.02734375 4.82421875 C-11.02701526 6.71336263 -21.01889515 8.63997308 -31 10.625 C-32.04752441 10.83294189 -33.09504883 11.04088379 -34.17431641 11.25512695 C-39.05051138 12.23287592 -43.91272472 13.24469755 -48.7578125 14.3671875 C-49.99978394 14.65432617 -49.99978394 14.65432617 -51.2668457 14.94726562 C-52.79087513 15.30448714 -54.31303586 15.66982152 -55.83276367 16.04492188 C-59.28245793 16.85788337 -61.94512577 17.45809931 -65.3125 16.125 C-15.03775308 -8.5119357 -15.03775308 -8.5119357 0 0 Z " fill="#F8FBFC" transform="translate(384.3125,141.875)"/>
<path d="M0 0 C2.35210784 2.11689705 2.91810953 3.44041515 3.375 6.5625 C3 9 3 9 1.9375 10.8125 C-1.09375543 12.67036623 -3.53422859 12.37133265 -7 12 C-8.9375 10.875 -8.9375 10.875 -10 9 C-10.4375 6 -10.4375 6 -10 3 C-7.11033885 -0.33422441 -4.26055221 -0.63455033 0 0 Z " fill="#FEF8F1" transform="translate(729,387)"/>
<path d="M0 0 C2.25173582 3.37760373 2.8366795 5.98222224 3.6875 9.9375 C3.95949219 11.16339844 4.23148437 12.38929688 4.51171875 13.65234375 C4.94523901 16.62455864 5.03095906 18.23924385 4 21 C1.23737632 18.23737632 1.38188667 16.02937912 0.875 12.1875 C0.70742188 10.96417969 0.53984375 9.74085938 0.3671875 8.48046875 C0.06447829 5.61117192 -0.07678299 2.87936222 0 0 Z " fill="#153035" transform="translate(420,356)"/>
<path d="M0 0 C0.66 0.33 1.32 0.66 2 1 C0.53403275 4.9429464 -1.37308275 6.01834588 -5.125 7.75 C-6.49011719 8.39195312 -6.49011719 8.39195312 -7.8828125 9.046875 C-8.58148438 9.36140625 -9.28015625 9.6759375 -10 10 C-10 8.68 -10 7.36 -10 6 C-7.8828125 4.26171875 -7.8828125 4.26171875 -5.125 2.6875 C-4.22007812 2.15511719 -3.31515625 1.62273437 -2.3828125 1.07421875 C-1.59648437 0.71972656 -0.81015625 0.36523438 0 0 Z " fill="#65CDE3" transform="translate(258,211)"/>
</svg>
